<svg xmlns="http://www.w3.org/2000/svg" width="35" height="37" fill="none" viewBox="0 0 35 37"><path stroke="#6b7280" stroke-linecap="round" stroke-linejoin="round" stroke-width="4" d="M7.292 23.125H5.834a2.84 2.84 0 0 1-2.062-.903 3.18 3.18 0 0 1-.854-2.18V6.167c-.001-.818.306-1.602.853-2.18a2.84 2.84 0 0 1 2.062-.903h13.125c.774 0 1.516.324 2.063.902.547.579.854 1.363.854 2.18v1.542m-5.833 6.167h13.125c1.61 0 2.916 1.38 2.916 3.083v13.875c0 1.703-1.305 3.084-2.916 3.084H16.042c-1.611 0-2.917-1.38-2.917-3.084V16.958c0-1.702 1.306-3.083 2.917-3.083"/></svg>