<svg xmlns="http://www.w3.org/2000/svg" width="40" height="40" fill="none" viewBox="0 0 40 40"><path fill="#231e1b" d="M40 20C40 8.954 31.046 0 20 0S0 8.954 0 20s8.954 20 20 20 20-8.954 20-20"/><path fill="#fff" fill-rule="evenodd" d="M19.97 10.24c-5.505 0-9.97 4.465-9.97 9.97 0 4.403 2.875 8.134 6.789 9.48.49.06.673-.245.673-.49v-1.712c-2.752.611-3.364-1.346-3.364-1.346-.428-1.162-1.101-1.468-1.101-1.468-.918-.611.061-.611.061-.611.979.06 1.53 1.04 1.53 1.04.917 1.528 2.323 1.1 2.874.856a2.13 2.13 0 0 1 .612-1.346c-2.202-.245-4.527-1.1-4.527-4.954 0-1.101.367-1.957 1.04-2.691-.061-.184-.428-1.223.123-2.569 0 0 .856-.245 2.752 1.04.795-.245 1.651-.306 2.507-.306s1.713.122 2.508.306c1.896-1.285 2.752-1.04 2.752-1.04.55 1.346.184 2.385.123 2.63a3.96 3.96 0 0 1 1.04 2.691c0 3.853-2.325 4.648-4.527 4.893.367.306.673.918.673 1.835V29.2c0 .245.184.55.673.49A9.98 9.98 0 0 0 30 20.21c-.061-5.505-4.526-9.97-10.03-9.97" clip-rule="evenodd"/></svg>