<svg xmlns="http://www.w3.org/2000/svg" width="40" height="40" fill="none" viewBox="0 0 40 40"><rect width="40" height="40" fill="url(#paint0_radial_67_1250)" rx="20"/><path fill="#fff" d="M20 11.807h4.096c.964 0 1.446.241 1.808.362.482.24.843.361 1.204.723.362.361.603.723.723 1.204.12.362.241.844.362 1.808v8.192c0 .964-.241 1.446-.362 1.808-.24.482-.361.843-.723 1.204-.361.362-.723.603-1.204.723-.362.12-.844.241-1.808.362h-8.192c-.964 0-1.446-.241-1.808-.362-.482-.24-.843-.361-1.204-.723-.362-.361-.603-.723-.723-1.204-.12-.362-.241-.844-.362-1.808v-8.192c0-.964.241-1.446.362-1.808.24-.482.361-.843.723-1.204.361-.362.723-.603 1.204-.723.362-.12.844-.241 1.808-.362ZM20 10h-4.096c-1.085 0-1.808.241-2.41.482a5.3 5.3 0 0 0-1.807 1.205c-.603.602-.844 1.084-1.205 1.807-.241.602-.361 1.325-.482 2.41v8.192c0 1.085.241 1.808.482 2.41a5.3 5.3 0 0 0 1.205 1.807c.602.603 1.084.844 1.807 1.205.602.241 1.325.361 2.41.482h8.192c1.085 0 1.808-.241 2.41-.482a5.3 5.3 0 0 0 1.807-1.205c.603-.602.844-1.084 1.205-1.807.241-.602.361-1.325.482-2.41v-8.192c0-1.085-.241-1.808-.482-2.41a5.3 5.3 0 0 0-1.205-1.807c-.602-.603-1.084-.844-1.807-1.205-.602-.241-1.325-.361-2.41-.482Z"/><path fill="#fff" d="M20 14.82A5.14 5.14 0 0 0 14.82 20c0 2.892 2.288 5.18 5.18 5.18s5.18-2.288 5.18-5.18-2.288-5.18-5.18-5.18m0 8.554A3.37 3.37 0 0 1 16.626 20 3.37 3.37 0 0 1 20 16.626 3.37 3.37 0 0 1 23.374 20c0 1.807-1.567 3.374-3.374 3.374M25.301 15.904A1.205 1.205 0 1 0 25.301 13.494 1.205 1.205 0 0 0 25.301 15.904"/><defs><radialGradient id="paint0_radial_67_1250" cx="0" cy="0" r="1" gradientTransform="translate(40.8047 0.812501) scale(92.3719)" gradientUnits="userSpaceOnUse" patternTransform="translate(40.805px,.813px)scale(92.3719)"><stop stop-color="#f9ed32"/><stop offset=".36" stop-color="#ee2a7b"/><stop offset=".44" stop-color="#d22a8a"/><stop offset=".6" stop-color="#8b2ab2"/><stop offset=".83" stop-color="#1b2af0"/><stop offset=".88" stop-color="#002aff"/></radialGradient></defs></svg>