<svg xmlns="http://www.w3.org/2000/svg" width="40" height="40" fill="none" viewBox="0 0 40 40"><rect width="40" height="40" fill="#2878b7" rx="20"/><path fill="#fff" d="M28 20.744v5.516h-3.229v-5.18c0-1.277-.47-2.152-1.614-2.152-.875 0-1.413.606-1.614 1.144-.068.201-.135.47-.135.807v5.381H18.18s.068-8.744 0-9.619h3.229v1.345c.404-.672 1.21-1.614 2.892-1.614 2.086 0 3.7 1.413 3.7 4.372M14.816 12C13.74 12 13 12.74 13 13.682s.673 1.681 1.749 1.681c1.143 0 1.816-.74 1.816-1.681.067-1.01-.605-1.682-1.749-1.682m-1.614 14.26h3.229v-9.619h-3.229Z"/></svg>