<svg xmlns="http://www.w3.org/2000/svg" width="32" height="46" viewBox="0 0 32 46" fill="none">
<g clip-path="url(#clip0_12_1064)">
<path d="M0 20.1875C0 15.5258 3.77578 11.75 8.4375 11.75H9C10.2445 11.75 11.25 12.7555 11.25 14C11.25 15.2445 10.2445 16.25 9 16.25H8.4375C6.26484 16.25 4.5 18.0148 4.5 20.1875V20.75H9C11.482 20.75 13.5 22.768 13.5 25.25V29.75C13.5 32.232 11.482 34.25 9 34.25H4.5C2.01797 34.25 0 32.232 0 29.75V27.5V25.25V20.1875ZM18 20.1875C18 15.5258 21.7758 11.75 26.4375 11.75H27C28.2445 11.75 29.25 12.7555 29.25 14C29.25 15.2445 28.2445 16.25 27 16.25H26.4375C24.2648 16.25 22.5 18.0148 22.5 20.1875V20.75H27C29.482 20.75 31.5 22.768 31.5 25.25V29.75C31.5 32.232 29.482 34.25 27 34.25H22.5C20.018 34.25 18 32.232 18 29.75V27.5V25.25V20.1875Z" fill="#D97706"/>
</g>
<defs>
<clipPath id="clip0_12_1064">
<rect width="31.5" height="36" fill="white" transform="translate(0 5)"/>
</clipPath>
</defs>
</svg>