<svg xmlns="http://www.w3.org/2000/svg" width="32" height="46" fill="none" viewBox="0 0 32 46"><g clip-path="url(#clip0_12_1064)"><path fill="#d97706" d="M0 20.188a8.435 8.435 0 0 1 8.438-8.438H9A2.25 2.25 0 0 1 11.25 14 2.25 2.25 0 0 1 9 16.25h-.563A3.94 3.94 0 0 0 4.5 20.188v.563H9c2.482-.001 4.5 2.017 4.5 4.499v4.5c0 2.482-2.018 4.5-4.5 4.5H4.5a4.504 4.504 0 0 1-4.5-4.5v-9.563m18 0a8.435 8.435 0 0 1 8.438-8.438H27A2.25 2.25 0 0 1 29.25 14 2.25 2.25 0 0 1 27 16.25h-.563a3.94 3.94 0 0 0-3.938 3.938v.563H27c2.482-.001 4.5 2.017 4.5 4.499v4.5c0 2.482-2.018 4.5-4.5 4.5h-4.5a4.504 4.504 0 0 1-4.5-4.5v-9.563"/></g><defs><clipPath id="clip0_12_1064"><path fill="#fff" d="M0 5h31.5v36H0Z"/></clipPath></defs></svg>