<svg xmlns="http://www.w3.org/2000/svg" width="32" height="23" fill="none" viewBox="0 0 32 23"><path fill="#d97706" d="M31.586 14.021a8.435 8.435 0 0 1-8.36 8.514l-.563.005a2.25 2.25 0 0 1-2.27-2.23 2.25 2.25 0 0 1 2.23-2.27l.562-.005a3.94 3.94 0 0 0 3.901-3.973l-.005-.562-4.5.04a4.504 4.504 0 0 1-4.54-4.459l-.042-4.499a4.504 4.504 0 0 1 4.459-4.54l4.5-.042a4.504 4.504 0 0 1 4.54 4.459l.021 2.25.02 2.25Zm-18 .164a8.435 8.435 0 0 1-8.36 8.514l-.562.005a2.25 2.25 0 0 1-2.27-2.23 2.25 2.25 0 0 1 2.23-2.27l.562-.004a3.94 3.94 0 0 0 3.901-3.973l-.005-.563-4.5.04a4.504 4.504 0 0 1-4.54-4.459L0 4.747A4.504 4.504 0 0 1 4.46.206l4.5-.042a4.504 4.504 0 0 1 4.54 4.459l.021 2.25.02 2.25Z"/></svg>