<svg xmlns="http://www.w3.org/2000/svg" width="32" height="23" viewBox="0 0 32 23" fill="none">
<path d="M31.5861 14.021C31.6286 18.6826 27.8875 22.4926 23.2259 22.5352L22.6635 22.5403C21.419 22.5517 20.4044 21.5554 20.393 20.3109C20.3817 19.0664 21.3779 18.0518 22.6224 18.0405L23.1849 18.0354C25.3574 18.0155 27.1061 16.2347 27.0863 14.0621L27.0812 13.4996L22.5813 13.5407C20.0994 13.5633 18.0631 11.5639 18.0405 9.08193L17.9994 4.58211C17.9768 2.10019 19.9762 0.0638891 22.4582 0.041243L26.958 0.000185024C29.4399 -0.022461 31.4762 1.97701 31.4989 4.45894L31.5194 6.70885L31.5399 8.95875L31.5861 14.021ZM13.5869 14.1853C13.6294 18.8468 9.88821 22.6569 5.22669 22.6994L4.66421 22.7045C3.41973 22.7159 2.40513 21.7196 2.39377 20.4752C2.38242 19.2307 3.37867 18.2161 4.62315 18.2047L5.18563 18.1996C7.35819 18.1798 9.10686 16.3989 9.08704 14.2263L9.08191 13.6639L4.58209 13.7049C2.10017 13.7276 0.0638685 11.7281 0.0412224 9.24616L0.000164405 4.74635C-0.0224817 2.26442 1.97699 0.228121 4.45892 0.205475L8.95873 0.164417C11.4407 0.141771 13.477 2.14124 13.4996 4.62317L13.5201 6.87308L13.5407 9.12298L13.5869 14.1853Z" fill="#D97706"/>
</svg>