<svg xmlns="http://www.w3.org/2000/svg" width="40" height="40" fill="none" viewBox="0 0 40 40"><rect width="40" height="40" fill="#f40000" rx="20"/><path fill="#fff" fill-rule="evenodd" d="M11.263 27.057a2.6 2.6 0 0 1-1.043-.602 2.5 2.5 0 0 1-.642-1.004c-.735-1.964-.953-10.164.461-11.783a2.74 2.74 0 0 1 1.849-.902c3.792-.398 15.51-.345 16.855.133.379.12.725.321 1.012.59s.508.598.646.962c.802 2.03.83 9.408-.108 11.359a2.54 2.54 0 0 1-1.183 1.168c-1.413.69-15.972.676-17.848.079m6.021-3.848 6.797-3.45-6.797-3.477Z" clip-rule="evenodd"/></svg>