<svg width="35" height="37" viewBox="0 0 35 37" fill="none" xmlns="http://www.w3.org/2000/svg">
<path d="M7.29169 23.125H5.83335C5.05981 23.125 4.31794 22.8002 3.77096 22.222C3.22398 21.6437 2.91669 20.8595 2.91669 20.0417V6.16671C2.91669 5.34896 3.22398 4.5647 3.77096 3.98646C4.31794 3.40822 5.05981 3.08337 5.83335 3.08337H18.9584C19.7319 3.08337 20.4738 3.40822 21.0207 3.98646C21.5677 4.5647 21.875 5.34896 21.875 6.16671V7.70837M16.0417 13.875H29.1667C30.7775 13.875 32.0834 15.2555 32.0834 16.9584V30.8334C32.0834 32.5363 30.7775 33.9167 29.1667 33.9167H16.0417C14.4309 33.9167 13.125 32.5363 13.125 30.8334V16.9584C13.125 15.2555 14.4309 13.875 16.0417 13.875Z" stroke="#6B7280" stroke-width="4" stroke-linecap="round" stroke-linejoin="round"/>
</svg>
